<?xml version="1.0" standalone="no"?>
<!DOCTYPE svg PUBLIC "-//W3C//DTD SVG 20010904//EN"
 "http://www.w3.org/TR/2001/REC-SVG-20010904/DTD/svg10.dtd">
<svg version="1.0" xmlns="http://www.w3.org/2000/svg"
 width="1024.000000pt" height="1024.000000pt" viewBox="0 0 1024.000000 1024.000000"
 preserveAspectRatio="xMidYMid meet">
<metadata>
Created by potrace 1.11, written by Peter Selinger 2001-2013
</metadata>
<g transform="translate(0.000000,1024.000000) scale(0.100000,-0.100000)"
fill="#000000" stroke="none">
<path d="M4977 10194 c-1 -1 -60 -4 -132 -8 -71 -3 -141 -8 -155 -10 -14 -3
-58 -7 -99 -11 -63 -5 -186 -21 -306 -41 -361 -57 -841 -199 -1153 -340 -29
-13 -55 -24 -58 -24 -9 0 -343 -166 -404 -201 -286 -163 -555 -346 -751 -511
-11 -9 -38 -31 -59 -48 -106 -86 -390 -362 -516 -500 -195 -215 -402 -500
-602 -829 -82 -135 -248 -477 -317 -651 -31 -80 -60 -154 -65 -165 -38 -87
-163 -517 -185 -635 -6 -32 -12 -62 -25 -125 -17 -82 -20 -98 -25 -135 -3 -19
-6 -44 -9 -55 -3 -17 -18 -119 -21 -150 -37 -313 -46 -604 -31 -915 4 -80 9
-156 11 -170 2 -14 6 -52 10 -85 7 -70 24 -209 30 -245 3 -14 12 -68 21 -120
19 -113 17 -101 44 -220 12 -52 23 -102 25 -110 1 -8 9 -35 16 -60 16 -57 17
-61 23 -85 41 -166 163 -499 267 -729 49 -106 181 -365 219 -426 169 -276 216
-347 329 -500 63 -85 167 -217 190 -241 9 -9 27 -29 40 -45 84 -101 268 -291
401 -414 248 -229 545 -452 855 -640 176 -107 495 -262 730 -355 106 -43 359
-130 420 -146 17 -4 84 -22 150 -39 112 -30 216 -55 275 -66 14 -2 59 -11 100
-18 107 -21 228 -38 350 -51 36 -4 76 -9 90 -10 201 -24 739 -24 940 -1 19 3
62 7 95 11 33 3 71 7 85 10 14 2 48 7 75 10 28 3 77 10 110 16 710 121 1366
379 1955 767 145 95 354 249 444 327 6 6 41 35 76 65 205 173 487 464 643 663
23 28 44 54 47 57 12 11 170 230 227 315 262 391 500 893 629 1325 36 119 94
338 100 380 3 19 8 38 10 41 2 4 6 24 10 44 6 41 9 58 18 95 3 14 8 41 11 60
2 19 7 46 9 60 6 32 24 168 32 240 3 30 7 66 9 79 25 153 25 840 0 969 -1 9
-6 51 -9 92 -6 67 -12 113 -31 230 -3 19 -8 46 -10 60 -13 83 -39 211 -66 320
-17 69 -32 132 -34 140 -11 46 -62 211 -102 329 -187 554 -511 1131 -890 1586
-197 237 -502 542 -678 676 -16 13 -32 26 -35 29 -3 4 -45 38 -95 76 -514 398
-1117 701 -1745 874 -41 12 -88 25 -105 30 -16 5 -41 11 -55 14 -14 2 -65 13
-115 24 -105 24 -297 58 -374 67 -30 4 -63 8 -74 11 -11 2 -52 6 -91 10 -39 3
-82 7 -95 9 -66 11 -594 27 -604 19z"/>
</g>
</svg>
